<svg width="107" height="53" viewBox="0 0 107 53" fill="none" xmlns="http://www.w3.org/2000/svg">
<path d="M27.8 25.976C30.0613 25.976 31.8533 25.1867 33.176 23.608C34.4987 22.0293 35.16 19.8533 35.16 17.08C35.16 13.7093 34.3493 10.9787 32.728 8.888C31.1067 6.75467 28.7173 5.688 25.56 5.688C23.4693 5.688 21.5067 6.328 19.672 7.608V44.408L30.808 46.84L28.696 51H2.072V47.416L8.088 42.68V7.032L0.984 4.856L3.096 0.695999H13.72C17.5173 0.695999 21.2507 0.567998 24.92 0.311996C27.6507 0.141329 29.656 0.0559959 30.936 0.0559959C34.264 0.0559959 37.208 0.71733 39.768 2.04C42.328 3.32 44.312 5.09067 45.72 7.352C47.128 9.61333 47.832 12.1307 47.832 14.904C47.832 17.976 46.6587 20.856 44.312 23.544C41.9653 26.232 39 28.344 35.416 29.88C31.832 31.416 28.3333 32.0987 24.92 31.928L22.104 30.2L24.216 26.04H27.8V25.976ZM99.9915 9.016V31.16C99.9915 35.64 98.8608 39.48 96.5995 42.68C94.3808 45.88 91.6075 48.2907 88.2795 49.912C84.9942 51.4907 81.7942 52.28 78.6795 52.28C74.5835 52.28 70.8928 51.448 67.6075 49.784C64.3648 48.0773 61.8262 45.752 59.9915 42.808C58.1995 39.8213 57.3035 36.472 57.3035 32.76V6.712L50.2635 4.856L52.3115 0.695999H74.9675V4.28L68.8875 9.016V30.456C68.8875 35.0213 70.0608 38.584 72.4075 41.144C74.7542 43.6613 78.2955 44.92 83.0315 44.92C84.8235 44.92 86.5942 44.3867 88.3435 43.32C90.0928 42.2107 91.5435 40.6107 92.6955 38.52C93.8475 36.4293 94.4235 33.9547 94.4235 31.096V7.736L86.9995 4.856L89.0475 0.695999H106.072V4.28L99.9915 9.016Z" fill="black"/>
</svg>
